<?xml version="1.0" encoding="utf-8"?><svg viewBox="0 0 20 11" xmlns="http://www.w3.org/2000/svg" xmlns:xlink="http://www.w3.org/1999/xlink"><style>:root>svg{display:none}:root>svg:target{display:block}</style><svg fill="none" viewBox="0 0 11 11" id="arrow" xmlns="http://www.w3.org/2000/svg"><path d="M6.875 2.292l-.646.646 2.099 2.104H.917v.916h7.41L6.225 8.062l.651.646L10.083 5.5 6.875 2.292z" fill="#27AE60"/></svg><svg fill="none" viewBox="0 0 20 6" id="arrow-cart" xmlns="http://www.w3.org/2000/svg"><path d="M15.012 2.167H1.25C.563 2.167 0 2.542 0 3c0 .458.563.833 1.25.833h13.762v1.492c0 .375.675.558 1.063.292l3.475-2.325c.238-.167.238-.425 0-.592L16.075.375C15.688.108 15.012.3 15.012.667v1.5z" fill="#BB8E34"/></svg><svg fill="none" viewBox="0 0 12 7" id="arrow-menu" xmlns="http://www.w3.org/2000/svg"><path d="M1.839.31l4.166 4.125L10.172.311a1.077 1.077 0 011.514 0 1.051 1.051 0 010 1.499L6.757 6.69a1.077 1.077 0 01-1.514 0L.314 1.81a1.051 1.051 0 010-1.5 1.1 1.1 0 011.525 0z" fill="#27AE60"/></svg></svg>